# xmcd
#
# Track frame offsets: 
#        150
#        16916
#        31407
#        47375
#        67991
#        95492
#        119601
#        144607
#        156897
#        170305
#        193612
#
# Disc length: 2862 seconds
#
# Revision: 0
# Processed by: cddbd v1.5.2PL0 Copyright (c) Steve Scherf et al.
# Submitted via: ExactAudioCopy v0.90b4
#
DISCID=8c0b2c0b
DTITLE=Christian Willisohn - Hold On
DYEAR=2005
DGENRE=Blues
TTITLE0=Hold On,I'm Waiting For You
TTITLE1=Little Angel
TTITLE2=No More Tears In Vain
TTITLE3=Heartbroken Man
TTITLE4=Caruso
TTITLE5=Black Day
TTITLE6=Blues In My Bottle
TTITLE7=Have I Told You Lately
TTITLE8=Little Fish
TTITLE9=The Man In Your Life
TTITLE10=Blues On The World
EXTD=
EXTT0=
EXTT1=
EXTT2=
EXTT3=
EXTT4=
EXTT5=
EXTT6=
EXTT7=
EXTT8=
EXTT9=
EXTT10=
PLAYORDER=
